<svg xmlns="http://www.w3.org/2000/svg" xmlns:xlink="http://www.w3.org/1999/xlink" width="64" height="64" viewBox="0 0 64 64">
  <defs>
    <linearGradient id="linear-gradient" y1="0.5" x2="1" y2="0.5" gradientUnits="objectBoundingBox">
      <stop offset="0" stop-color="#fff4bf"/>
      <stop offset="1" stop-color="#ffa900"/>
    </linearGradient>
    <clipPath id="clip-category-console_1">
      <rect width="64" height="64"/>
    </clipPath>
  </defs>
  <g id="category-console_1" data-name="category-console – 1" clip-path="url(#clip-category-console_1)">
    <g id="Group_8159" data-name="Group 8159" transform="translate(-1)">
      <path id="Polygon_5" data-name="Polygon 5" d="M40.5,0,54,23.5,40.5,47h-27L0,23.5,13.5,0Z" transform="translate(68.133 38.852) rotate(150)" fill="url(#linear-gradient)"/>
      <g id="Polygon_6" data-name="Polygon 6" transform="translate(66.767 38.486) rotate(150)" fill="none">
        <path d="M39,0,52,22.5,39,45H13L0,22.5,13,0Z" stroke="none"/>
        <path d="M 13.57714462280273 1 L 1.154922485351563 22.5 L 13.57714462280273 44 L 38.42285919189453 44 L 50.84507751464844 22.5 L 38.42285919189453 1 L 13.57714462280273 1 M 13 0 L 39 0 L 52 22.5 L 39 45 L 13 45 L 0 22.5 L 13 0 Z" stroke="none" fill="#fff"/>
      </g>
      <rect id="Rectangle_680" data-name="Rectangle 680" width="64" height="64" transform="translate(1)" fill="none"/>
      <g id="Group_8158" data-name="Group 8158">
        <path id="Rectangle_2500" data-name="Rectangle 2500" d="M4,0H15a5,5,0,0,1,5,5V38a8,8,0,0,1-8,8H8a8,8,0,0,1-8-8V4A4,4,0,0,1,4,0Z" transform="translate(11 10)" fill="#80eaff"/>
        <path id="Subtraction_91" data-name="Subtraction 91" d="M1413-92h-4a8.009,8.009,0,0,1-8-8v-3.82a8.048,8.048,0,0,0,8,7.82h4a8.011,8.011,0,0,0,8-7.993V-100A8.009,8.009,0,0,1,1413-92Z" transform="translate(-1390 148)" fill="#4de1ff" opacity="0.6"/>
        <path id="Subtraction_92" data-name="Subtraction 92" d="M1421-127.007h0a5,5,0,0,0-5-4.994h-11a3.982,3.982,0,0,0-4,3.873l0-5.873a4,4,0,0,1,4-4h11a5.006,5.006,0,0,1,5,5Z" transform="translate(-1390 148)" fill="#b3f2ff"/>
        <g id="Path_5963" data-name="Path 5963" transform="translate(11 8)" fill="#fff">
          <path d="M 6.999475955963135 46.99899673461914 C 3.681004762649536 46.93935012817383 1 44.22134399414063 1 40.88888931274414 L 1 1.000988483428955 C 1.740485072135925 1.014609098434448 2.323698997497559 1.174794554710388 2.895610094070435 1.846179962158203 C 3.699939966201782 2.790410041809082 4.386710166931152 4.655980110168457 4.936840057373047 7.391089916229248 C 5.609419822692871 10.73503017425537 6.101980209350586 15.39836978912354 6.442659854888916 21.64757919311523 C 6.806084632873535 28.31415557861328 6.988532543182373 36.61529922485352 6.999475955963135 46.99899673461914 Z" stroke="none"/>
          <path d="M 2 2.349666595458984 L 2 40.88888931274414 C 2 43.32478332519531 3.712985992431641 45.36816787719727 5.997515678405762 45.87781524658203 C 5.952122688293457 26.72046089172363 5.283216953277588 14.18453979492188 3.956470012664795 7.588279724121094 C 3.313469886779785 4.391429901123047 2.610690116882324 3.053821563720703 2.134359836578369 2.494640350341797 C 2.088752746582031 2.441097259521484 2.044369220733643 2.3929443359375 2 2.349666595458984 M 0.8888897895812988 0 C 4.816249847412109 0 8 3.183750152587891 8 48 L 7.111109733581543 48 C 3.183750152587891 48 0 44.81624984741211 0 40.88888931274414 L 0 0.8888893127441406 C 0 0.3979682922363281 0.3979701995849609 0 0.8888897895812988 0 Z" stroke="none" fill="#1466cc"/>
        </g>
        <g id="Path_5964" data-name="Path 5964" transform="translate(23 8)" fill="#fff">
          <path d="M 1.000524044036865 46.99899673461914 C 1.011467576026917 36.61529922485352 1.193915247917175 28.31415557861328 1.557340025901794 21.64757919311523 C 1.898020029067993 15.39836978912354 2.39057993888855 10.73503017425537 3.063159942626953 7.391089916229248 C 3.613290071487427 4.655980110168457 4.300059795379639 2.790410041809082 5.104390144348145 1.846179962158203 C 5.676301002502441 1.174794554710388 6.259514808654785 1.014609098434448 7 1.000988483428955 L 7 40.88888931274414 C 7 44.22134399414063 4.318994998931885 46.93935012817383 1.000524044036865 46.99899673461914 Z" stroke="none"/>
          <path d="M 6 2.349666595458984 C 5.955630779266357 2.3929443359375 5.911247253417969 2.441097259521484 5.865639686584473 2.494640350341797 C 5.389309883117676 3.053821563720703 4.686530113220215 4.391429901123047 4.043529987335205 7.588279724121094 C 2.716783046722412 14.18453979492188 2.047877311706543 26.72046089172363 2.002484321594238 45.87781524658203 C 4.287014007568359 45.36816787719727 6 43.32478332519531 6 40.88888931274414 L 6 2.349666595458984 M 7.111109733581543 0 C 7.602029800415039 0 8 0.3979682922363281 8 0.8888893127441406 L 8 40.88888931274414 C 8 44.81624984741211 4.816249847412109 48 0.8888897895812988 48 L 0 48 C 0 3.183750152587891 3.183750152587891 0 7.111109733581543 0 Z" stroke="none" fill="#1466cc"/>
        </g>
      </g>
      <g id="Group_8156" data-name="Group 8156" transform="translate(9 9.5)">
        <rect id="Rectangle_2501" data-name="Rectangle 2501" width="16" height="14" transform="translate(24 25)" fill="#4de1ff"/>
        <g id="Rectangle_2506" data-name="Rectangle 2506" transform="translate(25 25)" fill="#fff" stroke="#1466cc" stroke-width="2">
          <path d="M1,0H13a1,1,0,0,1,1,1V5a3,3,0,0,1-3,3H3A3,3,0,0,1,0,5V1A1,1,0,0,1,1,0Z" stroke="none"/>
          <path d="M1,1H13a0,0,0,0,1,0,0V5a2,2,0,0,1-2,2H3A2,2,0,0,1,1,5V1A0,0,0,0,1,1,1Z" fill="none"/>
        </g>
        <g id="Rectangle_2502" data-name="Rectangle 2502" transform="matrix(0.985, 0.174, -0.174, 0.985, 16.994, 22.5)" fill="#fff" stroke="#1466cc" stroke-width="2">
          <path d="M7.333,0h0A3.667,3.667,0,0,1,11,3.667V19.333A3.667,3.667,0,0,1,7.333,23h0A7.333,7.333,0,0,1,0,15.667V7.333A7.333,7.333,0,0,1,7.333,0Z" stroke="none"/>
          <path d="M7.136,1h0A2.864,2.864,0,0,1,10,3.864V19.136A2.864,2.864,0,0,1,7.136,22h0A6.136,6.136,0,0,1,1,15.864V7.136A6.136,6.136,0,0,1,7.136,1Z" fill="none"/>
        </g>
        <g id="Rectangle_2503" data-name="Rectangle 2503" transform="matrix(0.985, -0.174, 0.174, 0.985, 36.2, 24.41)" fill="#fff" stroke="#1466cc" stroke-width="2">
          <path d="M3.667,0h0A7.333,7.333,0,0,1,11,7.333v8.333A7.333,7.333,0,0,1,3.667,23h0A3.667,3.667,0,0,1,0,19.333V3.667A3.667,3.667,0,0,1,3.667,0Z" stroke="none"/>
          <path d="M3.864,1h0A6.136,6.136,0,0,1,10,7.136v8.727A6.136,6.136,0,0,1,3.864,22h0A2.864,2.864,0,0,1,1,19.136V3.864A2.864,2.864,0,0,1,3.864,1Z" fill="none"/>
        </g>
        <g id="Ellipse_435" data-name="Ellipse 435" transform="translate(23 33)" fill="#80eaff" stroke="#1466cc" stroke-width="2">
          <circle cx="3.5" cy="3.5" r="3.5" stroke="none"/>
          <circle cx="3.5" cy="3.5" r="2.5" fill="none"/>
        </g>
        <g id="Ellipse_436" data-name="Ellipse 436" transform="translate(34 33)" fill="#80eaff" stroke="#1466cc" stroke-width="2">
          <circle cx="3.5" cy="3.5" r="3.5" stroke="none"/>
          <circle cx="3.5" cy="3.5" r="2.5" fill="none"/>
        </g>
        <g id="Union_4" data-name="Union 4" transform="translate(-1466.5 167.5)" fill="#fff">
          <path d="M1486.5-135v-.5h-.5a1,1,0,0,1-1-1,1,1,0,0,1,1-1h.5v-.5a1,1,0,0,1,1-1,1,1,0,0,1,1,1v.5h.5a1,1,0,0,1,1,1,1,1,0,0,1-1,1h-.5v.5a1,1,0,0,1-1,1A1,1,0,0,1,1486.5-135Z" stroke="none"/>
          <path d="M 1487.500244140625 -134.0001068115234 C 1486.947631835938 -134.0001068115234 1486.500366210938 -134.4474029541016 1486.500366210938 -135 L 1486.500366210938 -135.4994964599609 L 1485.999877929688 -135.4994964599609 C 1485.447387695313 -135.4994964599609 1485 -135.9477081298828 1485 -136.4994049072266 C 1485 -137.052001953125 1485.447387695313 -137.4992980957031 1485.999877929688 -137.4992980957031 L 1486.500366210938 -137.4992980957031 L 1486.500366210938 -137.9997100830078 C 1486.500366210938 -138.5523071289063 1486.947631835938 -138.9996032714844 1487.500244140625 -138.9996032714844 C 1488.051879882813 -138.9996032714844 1488.500122070313 -138.5523071289063 1488.500122070313 -137.9997100830078 L 1488.500122070313 -137.4992980957031 L 1488.999633789063 -137.4992980957031 C 1489.55224609375 -137.4992980957031 1489.99951171875 -137.052001953125 1489.99951171875 -136.4994049072266 C 1489.99951171875 -135.9477081298828 1489.55224609375 -135.4994964599609 1488.999633789063 -135.4994964599609 L 1488.500122070313 -135.4994964599609 L 1488.500122070313 -135 C 1488.500122070313 -134.4474029541016 1488.051879882813 -134.0001068115234 1487.500244140625 -134.0001068115234 Z" stroke="none" fill="#1466cc"/>
        </g>
        <g id="Group_8157" data-name="Group 8157" transform="translate(-8 -5)">
          <g id="Ellipse_437" data-name="Ellipse 437" transform="translate(50 33)" fill="#fff" stroke="#1466cc" stroke-width="2">
            <circle cx="1" cy="1" r="1" stroke="none"/>
            <circle cx="1" cy="1" fill="none"/>
          </g>
          <g id="Ellipse_438" data-name="Ellipse 438" transform="translate(48 35)" fill="#fff" stroke="#1466cc" stroke-width="2">
            <circle cx="1" cy="1" r="1" stroke="none"/>
            <circle cx="1" cy="1" fill="none"/>
          </g>
          <g id="Ellipse_439" data-name="Ellipse 439" transform="translate(50 37)" fill="#fff" stroke="#1466cc" stroke-width="2">
            <circle cx="1" cy="1" r="1" stroke="none"/>
            <circle cx="1" cy="1" fill="none"/>
          </g>
          <g id="Ellipse_440" data-name="Ellipse 440" transform="translate(52 35)" fill="#fff" stroke="#1466cc" stroke-width="2">
            <circle cx="1" cy="1" r="1" stroke="none"/>
            <circle cx="1" cy="1" fill="none"/>
          </g>
        </g>
      </g>
    </g>
  </g>
</svg>
