<svg xmlns="http://www.w3.org/2000/svg" xmlns:xlink="http://www.w3.org/1999/xlink" width="64" height="64" viewBox="0 0 64 64">
  <defs>
    <linearGradient id="linear-gradient" y1="0.5" x2="1" y2="0.5" gradientUnits="objectBoundingBox">
      <stop offset="0" stop-color="#fff4bf"/>
      <stop offset="1" stop-color="#ffa900"/>
    </linearGradient>
    <clipPath id="clip-category-mobile-game_1">
      <rect width="64" height="64"/>
    </clipPath>
  </defs>
  <g id="category-mobile-game_1" data-name="category-mobile-game – 1" clip-path="url(#clip-category-mobile-game_1)">
    <g id="Group_8159" data-name="Group 8159" transform="translate(-1 -2)">
      <path id="Polygon_5" data-name="Polygon 5" d="M40.5,0,54,23.5,40.5,47h-27L0,23.5,13.5,0Z" transform="translate(68.133 40.852) rotate(150)" fill="url(#linear-gradient)"/>
      <g id="Polygon_6" data-name="Polygon 6" transform="translate(66.767 40.486) rotate(150)" fill="none">
        <path d="M39,0,52,22.5,39,45H13L0,22.5,13,0Z" stroke="none"/>
        <path d="M 13.57714462280273 1 L 1.154922485351563 22.5 L 13.57714462280273 44 L 38.42285919189453 44 L 50.84507751464844 22.5 L 38.42285919189453 1 L 13.57714462280273 1 M 13 0 L 39 0 L 52 22.5 L 39 45 L 13 45 L 0 22.5 L 13 0 Z" stroke="none" fill="#fff"/>
      </g>
      <rect id="Rectangle_680" data-name="Rectangle 680" width="64" height="64" transform="translate(1 2)" fill="none"/>
      <g id="Group_8184" data-name="Group 8184">
        <g id="Group_8174" data-name="Group 8174" transform="translate(9 9.5)">
          <g id="Group_8182" data-name="Group 8182">
            <g id="Rectangle_2502" data-name="Rectangle 2502" transform="matrix(0.966, 0.259, -0.259, 0.966, 6.318, 5)" fill="#ffc080" stroke="#1466cc" stroke-width="2">
              <path d="M10.667,0h0A5.333,5.333,0,0,1,16,5.333V30.667A5.333,5.333,0,0,1,10.667,36h0A10.667,10.667,0,0,1,0,25.333V10.667A10.667,10.667,0,0,1,10.667,0Z" stroke="none"/>
              <path d="M10.545,1h0A4.455,4.455,0,0,1,15,5.455V30.545A4.455,4.455,0,0,1,10.545,35h0A9.545,9.545,0,0,1,1,25.455V10.545A9.545,9.545,0,0,1,10.545,1Z" fill="none"/>
            </g>
            <path id="Subtraction_108" data-name="Subtraction 108" d="M1319.687-107.783a5.35,5.35,0,0,1-1.384-.183,10.668,10.668,0,0,1-7.8-11.8,10.659,10.659,0,0,0,7.8,8.8,5.34,5.34,0,0,0,1.384.183,5.339,5.339,0,0,0,5.148-3.955l6.524-24.349a5.324,5.324,0,0,1,.032,2.879l-6.557,24.47A5.339,5.339,0,0,1,1319.687-107.783Z" transform="translate(-1311 148.5)" fill="#ffa64d"/>
            <g id="Rectangle_2559" data-name="Rectangle 2559" transform="matrix(0.966, 0.259, -0.259, 0.966, 6.318, 5)" fill="none" stroke="#1466cc" stroke-width="2">
              <path d="M10.667,0h0A5.333,5.333,0,0,1,16,5.333V30.667A5.333,5.333,0,0,1,10.667,36h0A10.667,10.667,0,0,1,0,25.333V10.667A10.667,10.667,0,0,1,10.667,0Z" stroke="none"/>
              <path d="M10.545,1h0A4.455,4.455,0,0,1,15,5.455V30.545A4.455,4.455,0,0,1,10.545,35h0A9.545,9.545,0,0,1,1,25.455V10.545A9.545,9.545,0,0,1,10.545,1Z" fill="none"/>
            </g>
            <g id="Rectangle_2503" data-name="Rectangle 2503" transform="matrix(0.966, -0.259, 0.259, 0.966, 26.2, 9.141)" fill="#ffc080" stroke="#1466cc" stroke-width="2">
              <path d="M5.333,0h0A10.667,10.667,0,0,1,16,10.667V25.333A10.667,10.667,0,0,1,5.333,36h0A5.333,5.333,0,0,1,0,30.667V5.333A5.333,5.333,0,0,1,5.333,0Z" stroke="none"/>
              <path d="M5.455,1h0A9.545,9.545,0,0,1,15,10.545V25.455A9.545,9.545,0,0,1,5.455,35h0A4.455,4.455,0,0,1,1,30.545V5.455A4.455,4.455,0,0,1,5.455,1Z" fill="none"/>
            </g>
            <path id="Subtraction_107" data-name="Subtraction 107" d="M1321.085-107.783a5.339,5.339,0,0,1-5.149-3.954l-6.557-24.47a5.324,5.324,0,0,1,.032-2.879l6.524,24.349a5.339,5.339,0,0,0,5.149,3.955,5.336,5.336,0,0,0,1.383-.183,10.66,10.66,0,0,0,7.8-8.8,10.668,10.668,0,0,1-7.8,11.8A5.349,5.349,0,0,1,1321.085-107.783Z" transform="translate(-1281.8 148.5)" fill="#ffa64d"/>
            <g id="Rectangle_2556" data-name="Rectangle 2556" transform="matrix(0.966, -0.259, 0.259, 0.966, 26.2, 9.141)" fill="none" stroke="#1466cc" stroke-width="2">
              <path d="M5.333,0h0A10.667,10.667,0,0,1,16,10.667V25.333A10.667,10.667,0,0,1,5.333,36h0A5.333,5.333,0,0,1,0,30.667V5.333A5.333,5.333,0,0,1,5.333,0Z" stroke="none"/>
              <path d="M5.455,1h0A9.545,9.545,0,0,1,15,10.545V25.455A9.545,9.545,0,0,1,5.455,35h0A4.455,4.455,0,0,1,1,30.545V5.455A4.455,4.455,0,0,1,5.455,1Z" fill="none"/>
            </g>
          </g>
          <g id="Rectangle_2543" data-name="Rectangle 2543" transform="translate(3 4.5)" fill="#ffd9b3" stroke="#1466cc" stroke-width="2">
            <path d="M4,0H8a4,4,0,0,1,4,4V6a0,0,0,0,1,0,0H0A0,0,0,0,1,0,6V4A4,4,0,0,1,4,0Z" stroke="none"/>
            <path d="M4,1H8a3,3,0,0,1,3,3V4a1,1,0,0,1-1,1H2A1,1,0,0,1,1,4V4A3,3,0,0,1,4,1Z" fill="none"/>
          </g>
          <g id="Rectangle_2544" data-name="Rectangle 2544" transform="translate(33 4.5)" fill="#ffd9b3" stroke="#1466cc" stroke-width="2">
            <path d="M4,0H8a4,4,0,0,1,4,4V6a0,0,0,0,1,0,0H0A0,0,0,0,1,0,6V4A4,4,0,0,1,4,0Z" stroke="none"/>
            <path d="M4,1H8a3,3,0,0,1,3,3V4a1,1,0,0,1-1,1H2A1,1,0,0,1,1,4V4A3,3,0,0,1,4,1Z" fill="none"/>
          </g>
        </g>
        <g id="Group_8163" data-name="Group 8163" transform="translate(65 7) rotate(90)">
          <g id="Rectangle_2519" data-name="Rectangle 2519" transform="translate(11 8)" fill="#fff" stroke="#1466cc" stroke-width="2">
            <rect width="24" height="48" rx="4" stroke="none"/>
            <rect x="1" y="1" width="22" height="46" rx="3" fill="none"/>
          </g>
          <path id="Subtraction_93" data-name="Subtraction 93" d="M1339-93h0v-40a4,4,0,0,0-4-4h-16a4,4,0,0,1,4-4h16a4,4,0,0,1,4,4v40A4,4,0,0,1,1339-93Z" transform="translate(-1308 149)" fill="none"/>
          <path id="Subtraction_94" data-name="Subtraction 94" d="M1339-93h-16a4,4,0,0,1-4-4v-40a4,4,0,0,1,4-4v40a4,4,0,0,0,4,4h16A4,4,0,0,1,1339-93Z" transform="translate(-1308 149)" fill="none"/>
          <path id="Rectangle_2516" data-name="Rectangle 2516" d="M4,0H8a2,2,0,0,1,2,2V8a2,2,0,0,1-2,2H2A2,2,0,0,1,0,8V4A4,4,0,0,1,4,0Z" transform="translate(11 56) rotate(-90)" fill="#ffd9b3"/>
          <g id="Rectangle_2509" data-name="Rectangle 2509" transform="translate(11 8)" fill="none" stroke="#1466cc" stroke-width="2">
            <rect width="24" height="48" rx="4" stroke="none"/>
            <rect x="1" y="1" width="22" height="46" rx="3" fill="none"/>
          </g>
          <g id="Rectangle_2510" data-name="Rectangle 2510" transform="translate(16 8)" fill="#fff" stroke="#1466cc" stroke-width="2">
            <path d="M0,0H14a0,0,0,0,1,0,0V1a4,4,0,0,1-4,4H4A4,4,0,0,1,0,1V0A0,0,0,0,1,0,0Z" stroke="none"/>
            <path d="M1.75,1h10.5a.75.75,0,0,1,.75.75v0A2.25,2.25,0,0,1,10.75,4H3.25A2.25,2.25,0,0,1,1,1.75v0A.75.75,0,0,1,1.75,1Z" fill="none"/>
          </g>
          <line id="Line_1791" data-name="Line 1791" y1="8" transform="translate(15 28)" fill="none" stroke="#1466cc" stroke-linecap="round" stroke-width="2"/>
          <line id="Line_1808" data-name="Line 1808" y1="6" transform="translate(35 17)" fill="none" stroke="#1466cc" stroke-linecap="round" stroke-width="2"/>
          <line id="Line_1809" data-name="Line 1809" y1="2" transform="translate(35 26)" fill="none" stroke="#1466cc" stroke-linecap="round" stroke-width="2"/>
          <g id="Ellipse_459" data-name="Ellipse 459" transform="translate(26 19) rotate(-90)" fill="#fff" stroke="#1466cc" stroke-width="2">
            <circle cx="2.5" cy="2.5" r="2.5" stroke="none"/>
            <circle cx="2.5" cy="2.5" r="1.5" fill="none"/>
          </g>
          <circle id="Ellipse_460" data-name="Ellipse 460" cx="5" cy="5" r="5" transform="translate(22 53) rotate(-90)" fill="#ffd9b3"/>
          <g id="Ellipse_461" data-name="Ellipse 461" transform="translate(24 51) rotate(-90)" fill="#fff" stroke="#1466cc" stroke-width="2">
            <circle cx="3" cy="3" r="3" stroke="none"/>
            <circle cx="3" cy="3" r="2" fill="none"/>
          </g>
          <g id="Ellipse_462" data-name="Ellipse 462" transform="translate(23 16) rotate(-90)" fill="#fff" stroke="#1466cc" stroke-width="2">
            <circle cx="1" cy="1" r="1" stroke="none"/>
            <circle cx="1" cy="1" fill="none"/>
          </g>
          <circle id="Ellipse_474" data-name="Ellipse 474" cx="1" cy="1" r="1" transform="translate(29 30) rotate(-90)" fill="#fff"/>
          <circle id="Ellipse_475" data-name="Ellipse 475" cx="1" cy="1" r="1" transform="translate(29 27) rotate(-90)" fill="#fff"/>
          <g id="Ellipse_463" data-name="Ellipse 463" transform="translate(20 16) rotate(-90)" fill="#fff" stroke="#1466cc" stroke-width="2">
            <circle cx="1" cy="1" r="1" stroke="none"/>
            <circle cx="1" cy="1" fill="none"/>
          </g>
          <g id="Ellipse_464" data-name="Ellipse 464" transform="translate(26 22) rotate(-90)" fill="#fff" stroke="#1466cc" stroke-width="2">
            <circle cx="1" cy="1" r="1" stroke="none"/>
            <circle cx="1" cy="1" fill="none"/>
          </g>
          <g id="Ellipse_465" data-name="Ellipse 465" transform="translate(29 22) rotate(-90)" fill="#fff" stroke="#1466cc" stroke-width="2">
            <circle cx="1" cy="1" r="1" stroke="none"/>
            <circle cx="1" cy="1" fill="none"/>
          </g>
          <line id="Line_1799" data-name="Line 1799" x2="4" transform="translate(24 34) rotate(-90)" fill="none" stroke="#1466cc" stroke-linecap="round" stroke-width="2"/>
          <line id="Line_1800" data-name="Line 1800" y1="4" transform="translate(22 32) rotate(-90)" fill="none" stroke="#1466cc" stroke-linecap="round" stroke-width="2"/>
          <g id="Ellipse_477" data-name="Ellipse 477" transform="translate(15 31)" fill="#fff" stroke="#1466cc" stroke-width="2">
            <circle cx="1" cy="1" r="1" stroke="none"/>
            <circle cx="1" cy="1" fill="none"/>
          </g>
        </g>
      </g>
    </g>
  </g>
</svg>
