<svg xmlns="http://www.w3.org/2000/svg" xmlns:xlink="http://www.w3.org/1999/xlink" width="64" height="64" viewBox="0 0 64 64">
  <defs>
    <linearGradient id="linear-gradient" y1="0.5" x2="1" y2="0.5" gradientUnits="objectBoundingBox">
      <stop offset="0" stop-color="#fff4bf"/>
      <stop offset="1" stop-color="#ffa900"/>
    </linearGradient>
    <clipPath id="clip-category-voucher-game_1">
      <rect width="64" height="64"/>
    </clipPath>
  </defs>
  <g id="category-voucher-game_1" data-name="category-voucher-game – 1" clip-path="url(#clip-category-voucher-game_1)">
    <path id="Icon_feather-heart" data-name="Icon feather-heart" d="M37.354,10.771a9.472,9.472,0,0,0-13.4,0L22.129,12.6,20.3,10.771A9.474,9.474,0,1,0,6.9,24.17L8.73,26l13.4,13.4L35.528,26l1.826-1.826a9.472,9.472,0,0,0,0-13.4Z" transform="translate(14.87 12.727)" fill="none" stroke="#307fe2" stroke-linecap="round" stroke-linejoin="round" stroke-width="2"/>
    <g id="Group_8134" data-name="Group 8134">
      <path id="Polygon_5" data-name="Polygon 5" d="M40.5,0,54,23.5,40.5,47h-27L0,23.5,13.5,0Z" transform="translate(67.133 38.852) rotate(150)" fill="url(#linear-gradient)"/>
      <g id="Polygon_6" data-name="Polygon 6" transform="translate(65.767 38.486) rotate(150)" fill="none">
        <path d="M39,0,52,22.5,39,45H13L0,22.5,13,0Z" stroke="none"/>
        <path d="M 13.57714462280273 1 L 1.154922485351563 22.5 L 13.57714462280273 44 L 38.42285919189453 44 L 50.84507751464844 22.5 L 38.42285919189453 1 L 13.57714462280273 1 M 13 0 L 39 0 L 52 22.5 L 39 45 L 13 45 L 0 22.5 L 13 0 Z" stroke="none" fill="#fff"/>
      </g>
      <rect id="Rectangle_681" data-name="Rectangle 681" width="64" height="64" fill="none"/>
      <g id="Group_8127" data-name="Group 8127">
        <rect id="Rectangle_2443" data-name="Rectangle 2443" width="30" height="40" rx="3" transform="translate(8 8)" fill="#9af"/>
        <path id="Subtraction_60" data-name="Subtraction 60" d="M944,275.83h0V236.171a3.006,3.006,0,0,1,2,2.83v34a3.006,3.006,0,0,1-2,2.829Z" transform="translate(-908 -228)" fill="#6680ff"/>
        <path id="Subtraction_59" data-name="Subtraction 59" d="M919,276h0a3,3,0,0,1-3-3V239a3,3,0,0,1,3-3h24a3,3,0,0,1,3,3H922a3,3,0,0,0-3,3Z" transform="translate(-908 -228)" fill="#ccd5ff"/>
        <rect id="Rectangle_2449" data-name="Rectangle 2449" width="30" height="40" rx="3" transform="translate(8 8)" fill="none"/>
        <g id="Polygon_1" data-name="Polygon 1" transform="translate(33 19) rotate(90)" fill="#fff" stroke-linecap="round" stroke-linejoin="round">
          <path d="M 16.6009693145752 17.00000381469727 L 3.399029970169067 17.00000381469727 C 2.882889986038208 17.00000381469727 2.624350070953369 16.65532302856445 2.53715991973877 16.50712394714355 C 2.449959993362427 16.35893249511719 2.274209976196289 15.96554374694824 2.524869918823242 15.51435375213623 L 9.125840187072754 3.632603406906128 C 9.383749961853027 3.168363332748413 9.823080062866211 3.118253469467163 10 3.118253469467163 C 10.17691040039063 3.118253469467163 10.61623954772949 3.168363332748413 10.87415027618408 3.632603406906128 L 17.47513008117676 15.51435375213623 C 17.72579002380371 15.96554374694824 17.55003929138184 16.35893249511719 17.46283912658691 16.50712394714355 C 17.37565040588379 16.65532302856445 17.11710929870605 17.00000381469727 16.6009693145752 17.00000381469727 Z" stroke="none"/>
          <path d="M 9.999995231628418 4.118244171142578 C 9.999993324279785 4.118247032165527 9.999991416931152 4.118250846862793 9.999990463256836 4.118253707885742 L 3.399021148681641 16.00000381469727 C 3.399021148681641 16.00000381469727 3.399021148681641 16.00000381469727 3.399021148681641 16.00000381469727 C 3.399023056030273 16.00000381469727 3.399026870727539 16.00000381469727 3.399030685424805 16.00000381469727 L 16.6009693145752 16.00000381469727 L 10 4.118253707885742 C 9.999998092651367 4.118250846862793 9.999996185302734 4.118247032165527 9.999995231628418 4.118244171142578 M 9.999995231628418 2.118247985839844 C 10.68365001678467 2.118247985839844 11.36730480194092 2.461153030395508 11.74831008911133 3.146963119506836 L 18.34927940368652 15.02871322631836 C 19.08987998962402 16.36177444458008 18.12594032287598 18.00000381469727 16.6009693145752 18.00000381469727 L 3.399030685424805 18.00000381469727 C 1.874059677124023 18.00000381469727 0.9101200103759766 16.36177444458008 1.65070915222168 15.02871322631836 L 8.251680374145508 3.146963119506836 C 8.632684707641602 2.461153030395508 9.316340446472168 2.118247985839844 9.999995231628418 2.118247985839844 Z" stroke="none" fill="#1466cc"/>
        </g>
        <rect id="Rectangle_2546" data-name="Rectangle 2546" width="30" height="40" rx="3" transform="translate(26 16)" fill="#fff"/>
        <g id="Rectangle_2454" data-name="Rectangle 2454" transform="translate(26 16)" fill="none" stroke="#1466cc" stroke-linecap="round" stroke-linejoin="round" stroke-width="2">
          <rect width="30" height="40" rx="3" stroke="none"/>
          <rect x="1" y="1" width="28" height="38" rx="2" fill="none"/>
        </g>
        <path id="Path_5905" data-name="Path 5905" d="M9,0A9,9,0,1,1,0,9,9,9,0,0,1,9,0Z" transform="translate(32 28)" fill="#6680ff"/>
        <g id="Rectangle_2445" data-name="Rectangle 2445" transform="translate(36 20)" fill="#fff" stroke="#1466cc" stroke-linecap="round" stroke-linejoin="round" stroke-width="2">
          <rect width="10" height="2" rx="1" stroke="none"/>
          <rect x="1" y="1" width="8" fill="none"/>
        </g>
        <rect id="Rectangle_2446" data-name="Rectangle 2446" width="10" height="2" rx="1" transform="translate(18 12)" fill="#fff"/>
        <g id="Group_8183" data-name="Group 8183">
          <g id="Ellipse_467" data-name="Ellipse 467" transform="translate(40 31)" fill="#6680ff" stroke="#fff" stroke-width="2">
            <circle cx="4" cy="4" r="4" stroke="none"/>
            <circle cx="4" cy="4" r="3" fill="none"/>
          </g>
          <g id="Ellipse_469" data-name="Ellipse 469" transform="translate(43 34)" fill="#6680ff" stroke="#fff" stroke-width="2">
            <circle cx="1" cy="1" r="1" stroke="none"/>
            <circle cx="1" cy="1" fill="none"/>
          </g>
          <g id="Ellipse_468" data-name="Ellipse 468" transform="translate(36 38)" fill="#fff" stroke="#fff" stroke-width="2">
            <circle cx="2.5" cy="2.5" r="2.5" stroke="none"/>
            <circle cx="2.5" cy="2.5" r="1.5" fill="none"/>
          </g>
          <line id="Line_1806" data-name="Line 1806" x1="2" y2="2" transform="translate(39 38)" fill="none" stroke="#fff" stroke-linecap="round" stroke-width="2"/>
          <line id="Line_1807" data-name="Line 1807" x2="6" y2="3" transform="translate(31 37)" fill="none" stroke="#fff" stroke-linecap="round" stroke-width="2"/>
        </g>
      </g>
    </g>
  </g>
</svg>
